<?xml version="1.0" encoding="iso-8859-1"?>
<!-- Uploaded to: SVG Repo, www.svgrepo.com, Generator: SVG Repo Mixer Tools -->
<svg version="1.1" id="Layer_1" xmlns="http://www.w3.org/2000/svg" xmlns:xlink="http://www.w3.org/1999/xlink" 
	 viewBox="0 0 512.001 512.001" xml:space="preserve">
<path style="fill:#CCF7F9;" d="M500.136,61.714c-9.601-3.421-19.63-5.156-29.81-5.156c-22.464,0-44.115,8.592-60.572,23.814H102.246
	C85.789,65.151,64.138,56.559,41.674,56.559c-10.18,0-20.21,1.735-29.81,5.156L0,65.944v380.114l11.864,4.229
	c9.601,3.421,19.629,5.156,29.81,5.156c22.464,0,44.114-8.592,60.572-23.814h307.508c16.457,15.222,38.107,23.814,60.572,23.814
	c10.18,0,20.21-1.735,29.81-5.156l11.864-4.229V65.944L500.136,61.714z"/>
<path style="fill:#99EFF2;" d="M500.136,61.714c-9.601-3.421-19.63-5.156-29.81-5.156c-22.464,0-44.115,8.592-60.572,23.814H256
	v351.256h153.754c16.457,15.222,38.107,23.814,60.572,23.814c10.18,0,20.21-1.735,29.81-5.156L512,446.057V65.944L500.136,61.714z"
	/>
<path style="fill:#CCF7F9;" d="M410.791,208.373h-23.814v-11.907c0-19.727-15.993-35.721-35.721-35.721H148.837
	c-19.727,0-35.721,15.993-35.721,35.721v119.07c0,19.727,15.993,35.721,35.721,35.721h202.419c19.727,0,35.721-15.993,35.721-35.721
	v-11.907h23.814V208.373z"/>
<path style="fill:#99EFF2;" d="M386.977,208.373v-11.907c0-19.727-15.993-35.721-35.721-35.721H256v190.512h95.256
	c19.727,0,35.721-15.993,35.721-35.721v-11.907h23.814v-95.256H386.977z"/>
<path style="fill:#FFFFFF;" d="M351.256,369.117H148.837c-29.545,0-53.581-24.037-53.581-53.581v-119.07
	c0-29.545,24.037-53.581,53.581-53.581h202.419c27.533,0,50.282,20.874,53.253,47.628h24.143v130.977h-24.143
	C401.538,348.243,378.788,369.117,351.256,369.117z M148.837,178.605c-9.848,0-17.86,8.012-17.86,17.86v119.07
	c0,9.848,8.012,17.86,17.86,17.86h202.419c9.848,0,17.86-8.012,17.86-17.86v-29.767h23.814v-59.535h-23.814v-29.767
	c0-9.848-8.012-17.86-17.86-17.86H148.837z"/>
<g>
	<rect x="208.372" y="208.373" style="fill:#00A1A7;" width="95.255" height="35.721"/>
	<rect x="232.424" y="267.908" style="fill:#00A1A7;" width="47.628" height="35.721"/>
</g>
<path style="fill:#99EFF2;" d="M11.864,61.714L0,65.944v380.114l11.864,4.229c7.722,2.753,15.724,4.392,23.857,4.937V56.778
	C27.588,57.322,19.586,58.964,11.864,61.714z"/>
<path style="fill:#00D7DF;" d="M476.279,56.778v398.447c8.132-0.544,16.134-2.185,23.857-4.937L512,446.059V65.944l-11.864-4.229
	C492.413,58.964,484.412,57.322,476.279,56.778z"/>
</svg>