<?xml version="1.0" encoding="iso-8859-1"?>
<!-- Uploaded to: SVG Repo, www.svgrepo.com, Generator: SVG Repo Mixer Tools -->
<svg version="1.1" id="Layer_1" xmlns="http://www.w3.org/2000/svg" xmlns:xlink="http://www.w3.org/1999/xlink" 
	 viewBox="0 0 499.512 499.512" xml:space="preserve">
<rect x="231.024" y="6.244" style="fill:#7F000D;" width="37.463" height="99.902"/>
<g>
	<polygon style="fill:#FF4F19;" points="383.449,49.587 322.828,37.463 168.585,37.463 168.585,0 326.537,0 390.795,12.852 	"/>
	<path style="fill:#FF4F19;" d="M249.756,81.171L249.756,81.171c-34.484,0-62.439,27.955-62.439,62.439v37.463h124.878V143.61
		C312.195,109.126,284.24,81.171,249.756,81.171z"/>
</g>
<path style="fill:#FFE981;" d="M249.756,149.854c-96.401,0-174.829,78.428-174.829,174.829c0,54.7,25.496,105.91,68.683,138.928
	v35.901h212.293v-35.901c43.187-33.02,68.683-84.228,68.683-138.928C424.585,228.282,346.157,149.854,249.756,149.854z"/>
<path style="fill:#FFC266;" d="M249.756,149.854v349.659h106.146v-35.901c43.187-33.02,68.683-84.228,68.683-138.928
	C424.585,228.282,346.157,149.854,249.756,149.854z"/>
<circle style="fill:#FFFFFF;" cx="249.756" cy="324.683" r="112.39"/>
<rect x="187.317" y="305.951" style="fill:#FFC266;" width="124.878" height="37.463"/>
</svg>